<svg width="25" height="25" viewBox="0 0 25 25" fill="none" xmlns="http://www.w3.org/2000/svg">
<path d="M15.0208 18.5833C15.0208 20.3021 13.6146 21.7083 11.8958 21.7083C10.1771 21.7083 8.77083 20.3021 8.77083 18.5833H10.8542C10.8542 19.1562 11.3229 19.625 11.8958 19.625C12.4688 19.625 12.9375 19.1562 12.9375 18.5833C12.9375 18.0104 12.4688 17.5417 11.8958 17.5417H2V15.4583H11.8958C13.6146 15.4583 15.0208 16.8646 15.0208 18.5833ZM19.7083 7.64583C19.7083 5.63542 18.0729 4 16.0625 4C14.0521 4 12.4167 5.63542 12.4167 7.64583H14.5C14.5 6.78125 15.1979 6.08333 16.0625 6.08333C16.9271 6.08333 17.625 6.78125 17.625 7.64583C17.625 8.51042 16.9271 9.20833 16.0625 9.20833H2V11.2917H16.0625C18.0729 11.2917 19.7083 9.65625 19.7083 7.64583ZM19.1875 12.3333H2V14.4167H19.1875C20.0521 14.4167 20.75 15.1146 20.75 15.9792C20.75 16.8437 20.0521 17.5417 19.1875 17.5417V19.625C21.1979 19.625 22.8333 17.9896 22.8333 15.9792C22.8333 13.9688 21.1979 12.3333 19.1875 12.3333Z" fill="#E0E0E0"/>
</svg>
