<svg width="25" height="25" viewBox="0 0 25 25" fill="none" xmlns="http://www.w3.org/2000/svg">
<g clip-path="url(#clip0_10_131)">
<circle cx="16.5" cy="8.5" r="7.5" fill="#F2C94C"/>
<path d="M10 8H19C21.7614 8 24 10.2386 24 13V13C24 15.7614 21.7614 18 19 18H10V8Z" fill="#F2F2F2"/>
<g filter="url(#filter0_d_10_131)">
<circle cx="9.5" cy="9.5" r="8.5" fill="#F2F2F2"/>
</g>
<path d="M14 21.8172C14 22.891 13.1046 23.7616 12 23.7616C10.8954 23.7616 10 22.891 10 21.8172C10 20.7433 12.3162 18 12.3162 18C12.3162 18 14 20.7433 14 21.8172Z" fill="#56CCF2"/>
</g>
<defs>
<filter id="filter0_d_10_131" x="-3" y="1" width="25" height="25" filterUnits="userSpaceOnUse" color-interpolation-filters="sRGB">
<feFlood flood-opacity="0" result="BackgroundImageFix"/>
<feColorMatrix in="SourceAlpha" type="matrix" values="0 0 0 0 0 0 0 0 0 0 0 0 0 0 0 0 0 0 127 0" result="hardAlpha"/>
<feOffset dy="4"/>
<feGaussianBlur stdDeviation="2"/>
<feComposite in2="hardAlpha" operator="out"/>
<feColorMatrix type="matrix" values="0 0 0 0 0 0 0 0 0 0 0 0 0 0 0 0 0 0 0.25 0"/>
<feBlend mode="normal" in2="BackgroundImageFix" result="effect1_dropShadow_10_131"/>
<feBlend mode="normal" in="SourceGraphic" in2="effect1_dropShadow_10_131" result="shape"/>
</filter>
<clipPath id="clip0_10_131">
<path d="M0 0.25C0 0.111929 0.111929 0 0.25 0H24.75C24.8881 0 25 0.111929 25 0.25V24.75C25 24.8881 24.8881 25 24.75 25H0.25C0.111929 25 0 24.8881 0 24.75V0.25Z" fill="white"/>
</clipPath>
</defs>
</svg>
