<svg width="25" height="25" viewBox="0 0 25 25" fill="none" xmlns="http://www.w3.org/2000/svg">
<g clip-path="url(#clip0_10_141)">
<path fill-rule="evenodd" clip-rule="evenodd" d="M23.1358 19.926C21.9853 20.2752 20.7646 20.463 19.5 20.463C12.5964 20.463 7 14.8666 7 7.96301C7 4.93718 8.07511 2.16245 9.86418 0C4.73392 1.55717 1 6.32403 1 11.963C1 18.8666 6.59644 24.463 13.5 24.463C17.3777 24.463 20.8431 22.6973 23.1358 19.926Z" fill="#BDBDBD"/>
<path d="M9 15H18C20.7614 15 23 17.2386 23 20C23 22.7614 20.7614 25 18 25H9V15Z" fill="#F2F2F2"/>
<g filter="url(#filter0_d_10_141)">
<circle cx="8.5" cy="16.5" r="8.5" fill="#F2F2F2"/>
</g>
</g>
<defs>
<filter id="filter0_d_10_141" x="-4" y="8" width="25" height="25" filterUnits="userSpaceOnUse" color-interpolation-filters="sRGB">
<feFlood flood-opacity="0" result="BackgroundImageFix"/>
<feColorMatrix in="SourceAlpha" type="matrix" values="0 0 0 0 0 0 0 0 0 0 0 0 0 0 0 0 0 0 127 0" result="hardAlpha"/>
<feOffset dy="4"/>
<feGaussianBlur stdDeviation="2"/>
<feComposite in2="hardAlpha" operator="out"/>
<feColorMatrix type="matrix" values="0 0 0 0 0 0 0 0 0 0 0 0 0 0 0 0 0 0 0.25 0"/>
<feBlend mode="normal" in2="BackgroundImageFix" result="effect1_dropShadow_10_141"/>
<feBlend mode="normal" in="SourceGraphic" in2="effect1_dropShadow_10_141" result="shape"/>
</filter>
<clipPath id="clip0_10_141">
<rect width="25" height="25" fill="white"/>
</clipPath>
</defs>
</svg>
