<svg width="25" height="25" viewBox="0 0 25 25" fill="none" xmlns="http://www.w3.org/2000/svg">
<path d="M22.6458 11.5625C21.0625 11.5209 18.3021 11.5625 18.3021 11.5625C18.3021 11.5625 20.3453 9.5461 21.6771 8.18751C23.0088 6.82891 21.2291 5.60416 20.2083 6.70834C19.1875 7.81252 15.3542 11.5625 15.3542 11.5625H13.2708V9.47917C13.2708 9.47917 17.0208 5.64585 18.125 4.62501C19.2291 3.60416 17.7291 2.10416 16.6458 3.15626L13.2708 6.53126C13.2708 6.53126 13.3125 3.77085 13.2708 2.1875C13.2291 0.604157 11.2291 0.604173 11.1875 2.1875C11.1458 3.77084 11.1875 6.53126 11.1875 6.53126L7.81249 3.15626C6.72915 2.10416 5.22915 3.60416 6.33333 4.62501L11.1875 9.47917V11.5625H9.10416C9.10416 11.5625 5.27083 7.81252 4.24999 6.70834C3.22916 5.60416 1.72916 7.10416 2.78124 8.18751C3.83333 9.27085 6.15624 11.5625 6.15624 11.5625C6.15624 11.5625 2.89583 11.5209 1.81249 11.5625C0.729157 11.6042 0.729175 13.6042 1.81249 13.6458C2.89581 13.6875 6.15624 13.6458 6.15624 13.6458C6.15624 13.6458 3.83334 15.9375 2.78124 17.0208C1.72915 18.1042 3.22915 19.6042 4.24999 18.5C5.27084 17.3959 9.10416 13.6458 9.10416 13.6458H11.1875V15.7292C11.1875 15.7292 7.4375 19.5625 6.33333 20.5833C5.22915 21.6042 6.72915 23.0208 7.81249 22.0521C8.89584 21.0833 11.1875 18.6771 11.1875 18.6771C11.1875 18.6771 11.1875 21.9375 11.1875 23.0208C11.1875 24.1042 13.2291 24.1042 13.2708 23.0208C13.3125 21.9375 13.2708 18.6771 13.2708 18.6771C13.2708 18.6771 15.5625 21.0833 16.6458 22.0521C17.7291 23.0208 19.2291 21.6042 18.125 20.5833C17.0208 19.5625 13.2708 15.7292 13.2708 15.7292V13.6458H15.3542C15.3542 13.6458 19.1875 17.3959 20.2083 18.5C21.2291 19.6042 22.7291 18.1042 21.6771 17.0208C20.625 15.9375 18.3021 13.6458 18.3021 13.6458C18.3021 13.6458 21.0625 13.6875 22.6458 13.6458C24.2291 13.6042 24.2291 11.6042 22.6458 11.5625Z" fill="#56CCF2"/>
</svg>
